<svg>

<!-- <symbol width="146" height="146" viewBox="0 0 146 146" fill="none" xmlns="http://www.w3.org/2000/svg" id="logo">
    <circle cx="73" cy="73" r="72.5" fill="#FF3E47" stroke="#FF3E47"/>
    <path fill-rule="evenodd" clip-rule="evenodd" d="M38 84.259C38 61.0984 73 19 73 19C73 19 89.9281 39.3613 100.239 59.5536C81.2576 62.2856 65.4667 74.8897 58.2376 91.9946C57.9209 89.9335 57.7283 88.035 57.7283 86.5365C57.7283 76.082 62.0636 62.1712 65.5177 51.0882C67.5718 44.4972 69.3142 38.9062 69.6478 35.6371C66.9434 41.1841 63.5559 46.8701 60.2378 52.4396C53.5696 63.6326 47.1817 74.355 47.1817 82.5335C47.1817 88.5051 48.9832 96.4629 55.0254 102.473C54.3527 105.878 53.9999 109.398 53.9999 113C53.9999 113.148 54.0005 113.295 54.0017 113.442C44.3716 107.253 38 96.4955 38 84.259ZM105.966 73.0508C107.249 77.0654 108 80.8655 108 84.259C108 103.448 92.3317 119 73 119C71.4419 119 69.9076 118.899 68.4034 118.703C68.1375 116.84 67.9999 114.936 67.9999 113C67.9999 91.5907 84.8197 74.1099 105.966 73.0508Z" fill="white"/>
</symbol > -->


<symbol width="150" height="174" viewBox="0 0 150 174" fill="none" xmlns="http://www.w3.org/2000/svg" id="logo">
<circle cx="73" cy="73" r="72.5" fill="#FF3E47" stroke="#FF3E47"/>
<path fill-rule="evenodd" clip-rule="evenodd" d="M38 84.259C38 61.0984 73 19 73 19C73 19 89.9281 39.3613 100.239 59.5536C81.2576 62.2856 65.4667 74.8897 58.2376 91.9946C57.9209 89.9335 57.7283 88.035 57.7283 86.5365C57.7283 76.082 62.0636 62.1712 65.5177 51.0882C67.5718 44.4972 69.3142 38.9062 69.6478 35.6371C66.9434 41.1841 63.5559 46.8701 60.2378 52.4396C53.5696 63.6326 47.1817 74.355 47.1817 82.5335C47.1817 88.5051 48.9832 96.4629 55.0254 102.473C54.3527 105.878 53.9999 109.398 53.9999 113C53.9999 113.148 54.0005 113.295 54.0017 113.442C44.3716 107.253 38 96.4955 38 84.259ZM105.966 73.0508C107.249 77.0654 108 80.8655 108 84.259C108 103.448 92.3317 119 73 119C71.4419 119 69.9076 118.899 68.4034 118.703C68.1375 116.84 67.9999 114.936 67.9999 113C67.9999 91.5907 84.8197 74.1099 105.966 73.0508Z" fill="white"/>
<path d="M35.624 142.536C35.624 143.859 35.1547 144.584 34.216 144.712C33.0213 144.84 30.184 145.395 25.704 146.376C21.2667 147.315 18.0027 148.061 15.912 148.616C15.912 149.555 15.912 151.539 15.912 154.568C15.9547 157.555 16.0187 160.093 16.104 162.184C16.1467 162.995 16.232 163.891 16.36 164.872C16.5307 165.853 16.6373 166.557 16.68 166.984C16.936 168.52 17.064 169.437 17.064 169.736C17.064 170.205 16.8293 170.888 16.36 171.784C15.9333 172.723 15.5707 173.192 15.272 173.192C14.9733 173.192 14.696 173.043 14.44 172.744C14.184 172.445 14.0133 172.083 13.928 171.656C13.5013 169.736 13.2027 166.621 13.032 162.312C12.8187 157.064 12.712 152.968 12.712 150.024C12.456 150.067 12.0293 150.152 11.432 150.28C10.8773 150.365 10.3867 150.429 9.96 150.472C9.53333 150.472 9.08533 150.365 8.616 150.152C8.14667 149.939 7.912 149.683 7.912 149.384C7.912 149.043 8.01867 148.787 8.232 148.616C8.488 148.445 8.76533 148.317 9.064 148.232C9.36267 148.104 9.576 148.019 9.704 147.976C11.24 147.336 12.264 146.931 12.776 146.76L12.264 132.488C9.10667 133 6.78133 133.256 5.288 133.256C3.624 133.256 2.472 132.851 1.832 132.04C1.23467 131.229 0.936 130.483 0.936 129.8C0.936 129.416 1.21333 129.224 1.768 129.224C1.85333 129.224 2.344 129.373 3.24 129.672C4.17867 129.971 4.98933 130.12 5.672 130.12C7.03733 130.12 9.21333 129.907 12.2 129.48C12.2 129.395 12.2213 129.075 12.264 128.52C12.3067 127.923 12.4987 127.389 12.84 126.92C13.0533 126.536 13.2453 126.28 13.416 126.152C13.5867 126.024 13.7787 125.96 13.992 125.96C14.8027 125.96 15.208 126.856 15.208 128.648C15.8053 128.52 17.1493 128.264 19.24 127.88C21.3733 127.496 23.8053 127.133 26.536 126.792C29.2667 126.451 31.6347 126.28 33.64 126.28C35.2613 126.28 36.072 126.6 36.072 127.24C36.072 127.752 35.88 128.413 35.496 129.224C35.1547 130.035 34.7493 130.44 34.28 130.44C34.1093 130.44 33.9387 130.355 33.768 130.184C33.5973 129.971 33.4693 129.843 33.384 129.8C33 129.629 32.4453 129.544 31.72 129.544C30.3973 129.544 27.752 129.821 23.784 130.376C19.8587 130.931 17.0213 131.4 15.272 131.784L15.72 145.672C18.024 145.075 21.5653 144.264 26.344 143.24C31.1227 142.216 33.9173 141.704 34.728 141.704C35.0693 141.704 35.304 141.768 35.432 141.896C35.56 141.981 35.624 142.195 35.624 142.536ZM68.7645 163.912C68.7645 164.595 68.5725 165.128 68.1885 165.512C67.8045 165.896 67.2712 166.088 66.5885 166.088C65.7352 166.088 64.9458 165.192 64.2205 163.4C63.5378 161.608 63.1112 159.752 62.9405 157.832C62.7698 155.997 62.6418 152.285 62.5565 146.696C62.5138 145.8 62.4925 144.904 62.4925 144.008C62.4925 143.069 62.4712 142.28 62.4285 141.64C61.1912 144.584 59.5058 147.933 57.3725 151.688C55.2392 155.443 53.0845 158.664 50.9085 161.352C48.7752 164.04 47.0258 165.384 45.6605 165.384C44.2525 165.384 43.3138 164.637 42.8445 163.144C42.4178 161.651 42.2045 159.283 42.2045 156.04C42.2045 153.011 42.5885 149.576 43.3565 145.736C44.1672 141.896 45.0845 138.973 46.1085 136.968C46.5352 136.072 46.8978 135.475 47.1965 135.176C47.4952 134.835 47.8365 134.664 48.2205 134.664C49.2872 134.664 49.8205 134.877 49.8205 135.304C49.8205 135.517 49.6072 136.008 49.1805 136.776C48.0285 138.909 47.0258 141.469 46.1725 144.456C45.3192 147.443 44.8925 151.453 44.8925 156.488C44.8925 159.859 45.3618 161.544 46.3005 161.544C47.4098 161.544 48.9032 160.328 50.7805 157.896C52.7005 155.421 54.5992 152.477 56.4765 149.064C58.3538 145.651 59.7832 142.685 60.7645 140.168C61.1058 139.315 61.4898 137.992 61.9165 136.2C62.0445 135.475 62.1725 134.963 62.3005 134.664C62.4285 134.323 62.5778 134.152 62.7485 134.152C63.2178 134.152 63.7298 134.344 64.2845 134.728C64.8392 135.112 65.1165 135.517 65.1165 135.944C65.1165 137.992 65.1805 141.512 65.3085 146.504C65.4792 151.453 65.6712 154.888 65.8845 156.808C66.0552 158.472 66.3538 159.773 66.7805 160.712C67.2498 161.651 67.6978 162.397 68.1245 162.952C68.5512 163.464 68.7645 163.784 68.7645 163.912ZM98.206 148.68C98.5047 148.68 98.654 149 98.654 149.64C98.654 150.408 98.078 152.093 96.926 154.696C95.8167 157.299 94.11 159.709 91.806 161.928C89.5447 164.147 86.75 165.256 83.422 165.256C80.6913 165.256 78.4087 164.403 76.574 162.696C74.7393 160.989 73.822 158.365 73.822 154.824C73.822 151.496 74.59 148.211 76.126 144.968C77.662 141.683 79.6673 139.016 82.142 136.968C84.6167 134.877 87.1767 133.832 89.822 133.832C91.4007 133.832 92.7233 134.195 93.79 134.92C94.8993 135.603 95.454 136.605 95.454 137.928C95.454 139.421 94.6007 140.872 92.894 142.28C91.23 143.688 89.054 144.925 86.366 145.992C83.678 147.059 80.9047 147.827 78.046 148.296C77.534 150.259 77.278 152.179 77.278 154.056C77.278 156.531 77.854 158.451 79.006 159.816C80.2007 161.181 81.886 161.864 84.062 161.864C87.3473 161.864 90.014 160.691 92.062 158.344C94.11 155.997 95.8167 153.352 97.182 150.408C97.2673 150.237 97.4167 149.917 97.63 149.448C97.8433 148.936 98.0353 148.68 98.206 148.68ZM92.574 138.632C92.574 137.949 92.2113 137.416 91.486 137.032C90.8033 136.648 89.9927 136.456 89.054 136.456C87.4327 136.456 85.8753 136.989 84.382 138.056C82.8887 139.123 81.63 140.403 80.606 141.896C79.6247 143.389 78.9847 144.712 78.686 145.864C80.6487 145.651 82.718 145.096 84.894 144.2C87.07 143.304 88.8833 142.323 90.334 141.256C91.8273 140.189 92.574 139.315 92.574 138.632ZM109.91 163.272C109.91 163.699 109.632 164.04 109.078 164.296C108.523 164.552 107.904 164.68 107.222 164.68C106.71 164.68 106.219 164.083 105.75 162.888C105.323 161.651 105.11 159.795 105.11 157.32C105.152 152.499 105.216 146.675 105.302 139.848C105.43 133.021 105.536 127.88 105.622 124.424C105.664 123.187 105.878 122.035 106.262 120.968C106.688 119.901 107.414 119.368 108.438 119.368C108.779 119.368 108.992 119.56 109.078 119.944C109.206 120.285 109.27 120.968 109.27 121.992C109.27 122.035 109.248 122.184 109.206 122.44C109.206 122.653 109.206 123.059 109.206 123.656C108.438 134.877 108.054 145.821 108.054 156.488C108.054 157.853 108.352 159.304 108.95 160.84C109.59 162.376 109.91 163.187 109.91 163.272ZM139.554 156.04C139.554 157.917 138.786 159.731 137.25 161.48C135.757 163.187 133.773 164.552 131.298 165.576C128.823 166.643 126.242 167.176 123.554 167.176C121.719 167.176 120.482 167.005 119.842 166.664C119.202 166.323 118.882 165.853 118.882 165.256C118.882 164.872 119.373 164.211 120.354 163.272C121.335 162.291 121.997 161.8 122.338 161.8C122.85 161.8 123.106 161.907 123.106 162.12C123.106 162.291 122.999 162.461 122.786 162.632C122.573 162.803 122.466 162.952 122.466 163.08C122.466 163.251 122.722 163.421 123.234 163.592C123.789 163.763 124.45 163.848 125.218 163.848C127.01 163.848 128.802 163.528 130.594 162.888C132.429 162.205 133.922 161.331 135.074 160.264C136.226 159.197 136.802 158.067 136.802 156.872C136.802 155.72 136.439 154.803 135.714 154.12C134.989 153.437 134.071 152.947 132.962 152.648C131.895 152.307 130.082 151.837 127.522 151.24C124.706 150.6 122.509 150.045 120.93 149.576C119.394 149.064 118.157 148.445 117.218 147.72C116.279 146.952 115.81 145.992 115.81 144.84C115.81 142.792 116.813 140.915 118.818 139.208C120.823 137.501 123.127 136.157 125.73 135.176C128.333 134.195 130.338 133.704 131.746 133.704C133.197 133.704 133.922 134.131 133.922 134.984C133.922 135.496 133.751 136.072 133.41 136.712C133.069 137.309 132.557 137.608 131.874 137.608C131.618 137.608 131.341 137.523 131.042 137.352C130.743 137.139 130.445 137.032 130.146 137.032C129.293 137.032 127.949 137.309 126.114 137.864C124.279 138.419 122.615 139.251 121.122 140.36C119.629 141.469 118.882 142.813 118.882 144.392C118.882 145.416 119.458 146.184 120.61 146.696C121.805 147.165 124.002 147.763 127.202 148.488C127.586 148.616 127.97 148.723 128.354 148.808C128.738 148.851 129.079 148.915 129.378 149C132.663 149.768 135.181 150.643 136.93 151.624C138.679 152.605 139.554 154.077 139.554 156.04Z" fill="white"/>
</symbol>


</svg>
