<svg>

<!-- <symbol width="146" height="146" viewBox="0 0 146 146" fill="none" xmlns="http://www.w3.org/2000/svg" id="logo">
    <circle cx="73" cy="73" r="72.5" fill="#FF3E47" stroke="#FF3E47"/>
    <path fill-rule="evenodd" clip-rule="evenodd" d="M38 84.259C38 61.0984 73 19 73 19C73 19 89.9281 39.3613 100.239 59.5536C81.2576 62.2856 65.4667 74.8897 58.2376 91.9946C57.9209 89.9335 57.7283 88.035 57.7283 86.5365C57.7283 76.082 62.0636 62.1712 65.5177 51.0882C67.5718 44.4972 69.3142 38.9062 69.6478 35.6371C66.9434 41.1841 63.5559 46.8701 60.2378 52.4396C53.5696 63.6326 47.1817 74.355 47.1817 82.5335C47.1817 88.5051 48.9832 96.4629 55.0254 102.473C54.3527 105.878 53.9999 109.398 53.9999 113C53.9999 113.148 54.0005 113.295 54.0017 113.442C44.3716 107.253 38 96.4955 38 84.259ZM105.966 73.0508C107.249 77.0654 108 80.8655 108 84.259C108 103.448 92.3317 119 73 119C71.4419 119 69.9076 118.899 68.4034 118.703C68.1375 116.84 67.9999 114.936 67.9999 113C67.9999 91.5907 84.8197 74.1099 105.966 73.0508Z" fill="white"/>
</symbol > -->


<symbol width="150" height="174" viewBox="0 0 150 174" fill="none" xmlns="http://www.w3.org/2000/svg" id="logo">
    <circle cx="73" cy="73" r="72.5" fill="#FF3E47" stroke="#FF3E47"/>
    <path fill-rule="evenodd" clip-rule="evenodd" d="M38 84.259C38 61.0984 73 19 73 19C73 19 89.9281 39.3613 100.239 59.5536C81.2576 62.2856 65.4667 74.8897 58.2376 91.9946C57.9209 89.9335 57.7283 88.035 57.7283 86.5365C57.7283 76.082 62.0636 62.1712 65.5177 51.0882C67.5718 44.4972 69.3142 38.9062 69.6478 35.6371C66.9434 41.1841 63.5559 46.8701 60.2378 52.4396C53.5696 63.6326 47.1817 74.355 47.1817 82.5335C47.1817 88.5051 48.9832 96.4629 55.0254 102.473C54.3527 105.878 53.9999 109.398 53.9999 113C53.9999 113.148 54.0005 113.295 54.0017 113.442C44.3716 107.253 38 96.4955 38 84.259ZM105.966 73.0508C107.249 77.0654 108 80.8655 108 84.259C108 103.448 92.3317 119 73 119C71.4419 119 69.9076 118.899 68.4034 118.703C68.1375 116.84 67.9999 114.936 67.9999 113C67.9999 91.5907 84.8197 74.1099 105.966 73.0508Z" fill="white"/>
    <path d="M35.624 142.536C35.624 143.859 35.1547 144.584 34.216 144.712C33.0213 144.84 30.184 145.395 25.704 146.376C21.2667 147.315 18.0027 148.061 15.912 148.616C15.912 149.555 15.912 151.539 15.912 154.568C15.9547 157.555 16.0187 160.093 16.104 162.184C16.1467 162.995 16.232 163.891 16.36 164.872C16.5307 165.853 16.6373 166.557 16.68 166.984C16.936 168.52 17.064 169.437 17.064 169.736C17.064 170.205 16.8293 170.888 16.36 171.784C15.9333 172.723 15.5707 173.192 15.272 173.192C14.9733 173.192 14.696 173.043 14.44 172.744C14.184 172.445 14.0133 172.083 13.928 171.656C13.5013 169.736 13.2027 166.621 13.032 162.312C12.8187 157.064 12.712 152.968 12.712 150.024C12.456 150.067 12.0293 150.152 11.432 150.28C10.8773 150.365 10.3867 150.429 9.96 150.472C9.53333 150.472 9.08533 150.365 8.616 150.152C8.14667 149.939 7.912 149.683 7.912 149.384C7.912 149.043 8.01867 148.787 8.232 148.616C8.488 148.445 8.76533 148.317 9.064 148.232C9.36267 148.104 9.576 148.019 9.704 147.976C11.24 147.336 12.264 146.931 12.776 146.76L12.264 132.488C9.10667 133 6.78133 133.256 5.288 133.256C3.624 133.256 2.472 132.851 1.832 132.04C1.23467 131.229 0.936 130.483 0.936 129.8C0.936 129.416 1.21333 129.224 1.768 129.224C1.85333 129.224 2.344 129.373 3.24 129.672C4.17867 129.971 4.98933 130.12 5.672 130.12C7.03733 130.12 9.21333 129.907 12.2 129.48C12.2 129.395 12.2213 129.075 12.264 128.52C12.3067 127.923 12.4987 127.389 12.84 126.92C13.0533 126.536 13.2453 126.28 13.416 126.152C13.5867 126.024 13.7787 125.96 13.992 125.96C14.8027 125.96 15.208 126.856 15.208 128.648C15.8053 128.52 17.1493 128.264 19.24 127.88C21.3733 127.496 23.8053 127.133 26.536 126.792C29.2667 126.451 31.6347 126.28 33.64 126.28C35.2613 126.28 36.072 126.6 36.072 127.24C36.072 127.752 35.88 128.413 35.496 129.224C35.1547 130.035 34.7493 130.44 34.28 130.44C34.1093 130.44 33.9387 130.355 33.768 130.184C33.5973 129.971 33.4693 129.843 33.384 129.8C33 129.629 32.4453 129.544 31.72 129.544C30.3973 129.544 27.752 129.821 23.784 130.376C19.8587 130.931 17.0213 131.4 15.272 131.784L15.72 145.672C18.024 145.075 21.5653 144.264 26.344 143.24C31.1227 142.216 33.9173 141.704 34.728 141.704C35.0693 141.704 35.304 141.768 35.432 141.896C35.56 141.981 35.624 142.195 35.624 142.536ZM68.7645 163.912C68.7645 164.595 68.5725 165.128 68.1885 165.512C67.8045 165.896 67.2712 166.088 66.5885 166.088C65.7352 166.088 64.9458 165.192 64.2205 163.4C63.5378 161.608 63.1112 159.752 62.9405 157.832C62.7698 155.997 62.6418 152.285 62.5565 146.696C62.5138 145.8 62.4925 144.904 62.4925 144.008C62.4925 143.069 62.4712 142.28 62.4285 141.64C61.1912 144.584 59.5058 147.933 57.3725 151.688C55.2392 155.443 53.0845 158.664 50.9085 161.352C48.7752 164.04 47.0258 165.384 45.6605 165.384C44.2525 165.384 43.3138 164.637 42.8445 163.144C42.4178 161.651 42.2045 159.283 42.2045 156.04C42.2045 153.011 42.5885 149.576 43.3565 145.736C44.1672 141.896 45.0845 138.973 46.1085 136.968C46.5352 136.072 46.8978 135.475 47.1965 135.176C47.4952 134.835 47.8365 134.664 48.2205 134.664C49.2872 134.664 49.8205 134.877 49.8205 135.304C49.8205 135.517 49.6072 136.008 49.1805 136.776C48.0285 138.909 47.0258 141.469 46.1725 144.456C45.3192 147.443 44.8925 151.453 44.8925 156.488C44.8925 159.859 45.3618 161.544 46.3005 161.544C47.4098 161.544 48.9032 160.328 50.7805 157.896C52.7005 155.421 54.5992 152.477 56.4765 149.064C58.3538 145.651 59.7832 142.685 60.7645 140.168C61.1058 139.315 61.4898 137.992 61.9165 136.2C62.0445 135.475 62.1725 134.963 62.3005 134.664C62.4285 134.323 62.5778 134.152 62.7485 134.152C63.2178 134.152 63.7298 134.344 64.2845 134.728C64.8392 135.112 65.1165 135.517 65.1165 135.944C65.1165 137.992 65.1805 141.512 65.3085 146.504C65.4792 151.453 65.6712 154.888 65.8845 156.808C66.0552 158.472 66.3538 159.773 66.7805 160.712C67.2498 161.651 67.6978 162.397 68.1245 162.952C68.5512 163.464 68.7645 163.784 68.7645 163.912ZM98.206 148.68C98.5047 148.68 98.654 149 98.654 149.64C98.654 150.408 98.078 152.093 96.926 154.696C95.8167 157.299 94.11 159.709 91.806 161.928C89.5447 164.147 86.75 165.256 83.422 165.256C80.6913 165.256 78.4087 164.403 76.574 162.696C74.7393 160.989 73.822 158.365 73.822 154.824C73.822 151.496 74.59 148.211 76.126 144.968C77.662 141.683 79.6673 139.016 82.142 136.968C84.6167 134.877 87.1767 133.832 89.822 133.832C91.4007 133.832 92.7233 134.195 93.79 134.92C94.8993 135.603 95.454 136.605 95.454 137.928C95.454 139.421 94.6007 140.872 92.894 142.28C91.23 143.688 89.054 144.925 86.366 145.992C83.678 147.059 80.9047 147.827 78.046 148.296C77.534 150.259 77.278 152.179 77.278 154.056C77.278 156.531 77.854 158.451 79.006 159.816C80.2007 161.181 81.886 161.864 84.062 161.864C87.3473 161.864 90.014 160.691 92.062 158.344C94.11 155.997 95.8167 153.352 97.182 150.408C97.2673 150.237 97.4167 149.917 97.63 149.448C97.8433 148.936 98.0353 148.68 98.206 148.68ZM92.574 138.632C92.574 137.949 92.2113 137.416 91.486 137.032C90.8033 136.648 89.9927 136.456 89.054 136.456C87.4327 136.456 85.8753 136.989 84.382 138.056C82.8887 139.123 81.63 140.403 80.606 141.896C79.6247 143.389 78.9847 144.712 78.686 145.864C80.6487 145.651 82.718 145.096 84.894 144.2C87.07 143.304 88.8833 142.323 90.334 141.256C91.8273 140.189 92.574 139.315 92.574 138.632ZM109.91 163.272C109.91 163.699 109.632 164.04 109.078 164.296C108.523 164.552 107.904 164.68 107.222 164.68C106.71 164.68 106.219 164.083 105.75 162.888C105.323 161.651 105.11 159.795 105.11 157.32C105.152 152.499 105.216 146.675 105.302 139.848C105.43 133.021 105.536 127.88 105.622 124.424C105.664 123.187 105.878 122.035 106.262 120.968C106.688 119.901 107.414 119.368 108.438 119.368C108.779 119.368 108.992 119.56 109.078 119.944C109.206 120.285 109.27 120.968 109.27 121.992C109.27 122.035 109.248 122.184 109.206 122.44C109.206 122.653 109.206 123.059 109.206 123.656C108.438 134.877 108.054 145.821 108.054 156.488C108.054 157.853 108.352 159.304 108.95 160.84C109.59 162.376 109.91 163.187 109.91 163.272ZM139.554 156.04C139.554 157.917 138.786 159.731 137.25 161.48C135.757 163.187 133.773 164.552 131.298 165.576C128.823 166.643 126.242 167.176 123.554 167.176C121.719 167.176 120.482 167.005 119.842 166.664C119.202 166.323 118.882 165.853 118.882 165.256C118.882 164.872 119.373 164.211 120.354 163.272C121.335 162.291 121.997 161.8 122.338 161.8C122.85 161.8 123.106 161.907 123.106 162.12C123.106 162.291 122.999 162.461 122.786 162.632C122.573 162.803 122.466 162.952 122.466 163.08C122.466 163.251 122.722 163.421 123.234 163.592C123.789 163.763 124.45 163.848 125.218 163.848C127.01 163.848 128.802 163.528 130.594 162.888C132.429 162.205 133.922 161.331 135.074 160.264C136.226 159.197 136.802 158.067 136.802 156.872C136.802 155.72 136.439 154.803 135.714 154.12C134.989 153.437 134.071 152.947 132.962 152.648C131.895 152.307 130.082 151.837 127.522 151.24C124.706 150.6 122.509 150.045 120.93 149.576C119.394 149.064 118.157 148.445 117.218 147.72C116.279 146.952 115.81 145.992 115.81 144.84C115.81 142.792 116.813 140.915 118.818 139.208C120.823 137.501 123.127 136.157 125.73 135.176C128.333 134.195 130.338 133.704 131.746 133.704C133.197 133.704 133.922 134.131 133.922 134.984C133.922 135.496 133.751 136.072 133.41 136.712C133.069 137.309 132.557 137.608 131.874 137.608C131.618 137.608 131.341 137.523 131.042 137.352C130.743 137.139 130.445 137.032 130.146 137.032C129.293 137.032 127.949 137.309 126.114 137.864C124.279 138.419 122.615 139.251 121.122 140.36C119.629 141.469 118.882 142.813 118.882 144.392C118.882 145.416 119.458 146.184 120.61 146.696C121.805 147.165 124.002 147.763 127.202 148.488C127.586 148.616 127.97 148.723 128.354 148.808C128.738 148.851 129.079 148.915 129.378 149C132.663 149.768 135.181 150.643 136.93 151.624C138.679 152.605 139.554 154.077 139.554 156.04Z" fill="white"/>
</symbol>

<symbol width="46" height="42" viewBox="0 0 46 42" fill="none" xmlns="http://www.w3.org/2000/svg" id="flag">
<path d="M45.7288 27.998H22V34.998H45.7288V27.998Z" fill="white"/>
<path d="M45.7288 34.998H22V41.998H45.7288V34.998Z" fill="#D52B1E"/>
<path d="M45.7288 32.665H22V37.3317H45.7288V32.665Z" fill="#0039A6"/>
<path d="M11.2614 23.2386C10.2614 23.2386 9.3608 23.0398 8.55966 22.642C7.75852 22.2443 7.11648 21.6989 6.63352 21.0057C6.15057 20.3125 5.88636 19.5227 5.84091 18.6364H7.88636C7.96591 19.4261 8.32386 20.0795 8.96023 20.5966C9.60227 21.108 10.3693 21.3636 11.2614 21.3636C11.9773 21.3636 12.6136 21.196 13.1705 20.8608C13.733 20.5256 14.1733 20.0653 14.4915 19.4801C14.8153 18.8892 14.9773 18.2216 14.9773 17.4773C14.9773 16.7159 14.8097 16.0369 14.4744 15.4403C14.1449 14.8381 13.6903 14.3636 13.1108 14.017C12.5313 13.6705 11.8693 13.4943 11.125 13.4886C10.5909 13.483 10.0426 13.5653 9.48011 13.7358C8.91761 13.9006 8.45455 14.1136 8.09091 14.375L6.11364 14.1364L7.17045 5.54545H16.2386V7.42045H8.94318L8.32955 12.5682H8.43182C8.78977 12.2841 9.23864 12.0483 9.77841 11.8608C10.3182 11.6733 10.8807 11.5795 11.4659 11.5795C12.5341 11.5795 13.4858 11.8352 14.321 12.3466C15.1619 12.8523 15.821 13.5455 16.2983 14.4261C16.7812 15.3068 17.0227 16.3125 17.0227 17.4432C17.0227 18.5568 16.7727 19.5511 16.2727 20.4261C15.7784 21.2955 15.0966 21.983 14.2273 22.4886C13.358 22.9886 12.3693 23.2386 11.2614 23.2386Z" fill="white"/>
<path d="M29.7045 23.2386C28.5795 23.2386 27.5767 23.0455 26.696 22.6591C25.821 22.2727 25.125 21.7358 24.608 21.0483C24.0966 20.3551 23.8182 19.5511 23.7727 18.6364H25.9205C25.9659 19.1989 26.1591 19.6847 26.5 20.0938C26.8409 20.4972 27.2869 20.8097 27.8381 21.0312C28.3892 21.2528 29 21.3636 29.6705 21.3636C30.4205 21.3636 31.0852 21.233 31.6648 20.9716C32.2443 20.7102 32.6989 20.3466 33.0284 19.8807C33.358 19.4148 33.5227 18.875 33.5227 18.2614C33.5227 17.6193 33.3636 17.054 33.0455 16.5653C32.7273 16.071 32.2614 15.6847 31.6477 15.4062C31.0341 15.1278 30.2841 14.9886 29.3977 14.9886H28V13.1136H29.3977C30.0909 13.1136 30.6989 12.9886 31.2216 12.7386C31.75 12.4886 32.1619 12.1364 32.4574 11.6818C32.7585 11.2273 32.9091 10.6932 32.9091 10.0795C32.9091 9.48864 32.7784 8.97443 32.517 8.53693C32.2557 8.09943 31.8864 7.75852 31.4091 7.5142C30.9375 7.26989 30.3807 7.14773 29.7386 7.14773C29.1364 7.14773 28.5682 7.25852 28.0341 7.48011C27.5057 7.69602 27.0739 8.01136 26.7386 8.42614C26.4034 8.83523 26.2216 9.32955 26.1932 9.90909H24.1477C24.1818 8.99432 24.4574 8.19318 24.9744 7.50568C25.4915 6.8125 26.1676 6.27273 27.0028 5.88636C27.8438 5.5 28.767 5.30682 29.7727 5.30682C30.8523 5.30682 31.7784 5.52557 32.5511 5.96307C33.3239 6.39489 33.9176 6.96591 34.3324 7.67614C34.7472 8.38636 34.9545 9.15341 34.9545 9.97727C34.9545 10.9602 34.696 11.7983 34.179 12.4915C33.6676 13.1847 32.9716 13.6648 32.0909 13.9318V14.0682C33.1932 14.25 34.054 14.7187 34.6733 15.4744C35.2926 16.2244 35.6023 17.1534 35.6023 18.2614C35.6023 19.2102 35.3438 20.0625 34.8267 20.8182C34.3153 21.5682 33.6165 22.1591 32.7301 22.5909C31.8438 23.0227 30.8352 23.2386 29.7045 23.2386Z" fill="white"/>
<path d="M0.880682 38V30.7273H3.33807C3.90625 30.7273 4.37263 30.8243 4.73722 31.0185C5.1018 31.2102 5.37169 31.4742 5.54688 31.8104C5.72206 32.1465 5.80966 32.5289 5.80966 32.9574C5.80966 33.3859 5.72206 33.7659 5.54688 34.0973C5.37169 34.4287 5.10298 34.6892 4.74077 34.8786C4.37855 35.0656 3.91572 35.1591 3.35227 35.1591H1.36364V34.3636H3.32386C3.71212 34.3636 4.02462 34.3068 4.26136 34.1932C4.50047 34.0795 4.6733 33.9186 4.77983 33.7102C4.88873 33.4995 4.94318 33.2486 4.94318 32.9574C4.94318 32.6662 4.88873 32.4117 4.77983 32.1939C4.67093 31.9761 4.49692 31.808 4.25781 31.6896C4.0187 31.5689 3.70265 31.5085 3.30966 31.5085H1.76136V38H0.880682ZM4.30398 34.733L6.09375 38H5.07102L3.30966 34.733H4.30398ZM12.0499 30.7273H12.9306V35.5426C12.9306 36.0398 12.8134 36.4837 12.579 36.8743C12.347 37.2625 12.0191 37.5691 11.5953 37.794C11.1716 38.0166 10.6744 38.1278 10.1039 38.1278C9.53332 38.1278 9.03616 38.0166 8.61239 37.794C8.18862 37.5691 7.85955 37.2625 7.62518 36.8743C7.39317 36.4837 7.27717 36.0398 7.27717 35.5426V30.7273H8.15785V35.4716C8.15785 35.8267 8.23597 36.1428 8.39222 36.4197C8.54847 36.6944 8.77101 36.911 9.05984 37.0696C9.35103 37.2259 9.69904 37.304 10.1039 37.304C10.5087 37.304 10.8567 37.2259 11.1479 37.0696C11.4391 36.911 11.6616 36.6944 11.8155 36.4197C11.9718 36.1428 12.0499 35.8267 12.0499 35.4716V30.7273ZM18.6665 32.5455C18.6239 32.1856 18.4511 31.9062 18.1481 31.7074C17.8451 31.5085 17.4734 31.4091 17.033 31.4091C16.7111 31.4091 16.4293 31.4612 16.1879 31.5653C15.9487 31.6695 15.7617 31.8127 15.6268 31.995C15.4942 32.1773 15.4279 32.3845 15.4279 32.6165C15.4279 32.8106 15.4741 32.9775 15.5664 33.1172C15.6611 33.2545 15.7818 33.3693 15.9286 33.4616C16.0754 33.5516 16.2293 33.6262 16.3903 33.6854C16.5513 33.7422 16.6992 33.7884 16.8342 33.8239L17.5728 34.0227C17.7622 34.0724 17.9729 34.1411 18.2049 34.2287C18.4393 34.3163 18.663 34.4358 18.8761 34.5874C19.0915 34.7365 19.2691 34.9283 19.4087 35.1626C19.5484 35.397 19.6183 35.6847 19.6183 36.0256C19.6183 36.4186 19.5153 36.7737 19.3093 37.0909C19.1057 37.4081 18.8074 37.6603 18.4144 37.8473C18.0238 38.0343 17.5491 38.1278 16.9904 38.1278C16.4696 38.1278 16.0186 38.0438 15.6374 37.8757C15.2586 37.7076 14.9603 37.4732 14.7425 37.1726C14.5271 36.8719 14.4052 36.5227 14.3768 36.125H15.2859C15.3095 36.3996 15.4019 36.6269 15.5629 36.8068C15.7262 36.9844 15.9322 37.117 16.1808 37.2045C16.4317 37.2898 16.7016 37.3324 16.9904 37.3324C17.3266 37.3324 17.6284 37.2779 17.896 37.169C18.1635 37.0578 18.3754 36.9039 18.5316 36.7074C18.6879 36.5085 18.766 36.2765 18.766 36.0114C18.766 35.7699 18.6985 35.5734 18.5636 35.4219C18.4286 35.2704 18.2511 35.1473 18.0309 35.0526C17.8107 34.9579 17.5728 34.875 17.3171 34.804L16.4222 34.5483C15.854 34.3849 15.4042 34.1518 15.0728 33.8487C14.7414 33.5457 14.5756 33.1491 14.5756 32.6591C14.5756 32.2519 14.6857 31.8968 14.9059 31.5938C15.1284 31.2884 15.4267 31.0516 15.8008 30.8835C16.1772 30.7131 16.5974 30.6278 17.0614 30.6278C17.5302 30.6278 17.9469 30.7119 18.3114 30.88C18.676 31.0457 18.9648 31.273 19.1779 31.5618C19.3933 31.8506 19.507 32.1785 19.5188 32.5455H18.6665Z" fill="white"/>
</symbol>



</svg>
